<svg xmlns="http://www.w3.org/2000/svg" viewBox="0 0 209.91 136"><defs><style>.cls-1{fill:#fff}</style></defs><title>Ativo 3</title><g id="Camada_2" data-name="Camada 2"><g id="Camada_1-2" data-name="Camada 1"><g id="Camada_2-2" data-name="Camada 2"><g id="Capa_1" data-name="Capa 1"><path class="cls-1" d="M82.91 61.92s19.94-1.57 19.94-25S86.56 0 65.92 0H0v135.29h61.92s45.5-1 45.5-40.93c-.02-.02 1.79-32.44-24.51-32.44zm-17-34.87s8.48-.43 8.48 13.15-4.67 13.91-10.82 13.91H27.06V27.06zm-1.74 81.17H27.06V74.41h38.83s13.75.24 13.75 18.35c.03 15.09-9.75 15.47-15.46 15.47zm98.51-72.3c-50.2 0-50.16 50-50.16 50S109.06 136 162.68 136c0 0 44.67-.71 44.67-34.54h-22.93s-.05 13.28-21.74 13.74c-7.48.16-20.61-1.48-20.61-20.51h67.65s5.84-58.77-47.04-58.77zm20.4 38.5h-42.89S143 55 163.21 55s19.87 19.41 19.87 19.41zM135.31 6.77h54.11v20.29h-54.11z" id="behance"/></g></g></g></g></svg>