<svg xmlns="http://www.w3.org/2000/svg" viewBox="0 0 193.74 135.61"><defs><style>.cls-1{fill:#fff}</style></defs><title>Ativo 6</title><g id="Camada_2" data-name="Camada 2"><g id="Camada_1-2" data-name="Camada 1"><g id="Camada_2-2" data-name="Camada 2"><g id="Capa_1" data-name="Capa 1"><path class="cls-1" d="M15.32 8l69.79 55.28a17.75 17.75 0 0 0 11.76 3.4 17.69 17.69 0 0 0 11.75-3.4L178.41 8c5.59-4.4 4.33-8-2.77-8H18.11C11 0 9.74 3.61 15.32 8z"/><path class="cls-1" d="M183.44 22.59L107.19 80.5a18.51 18.51 0 0 1-20.62 0L10.29 22.59C4.63 18.31 0 20.61 0 27.7v95a13 13 0 0 0 12.92 12.92h167.9a13 13 0 0 0 12.92-12.92v-95c0-7.09-4.63-9.39-10.3-5.11z"/></g></g></g></g></svg>