<svg id="Capa_1" xmlns="http://www.w3.org/2000/svg" viewBox="0 0 136.2 133.3"><style>.st0{fill:#fff}</style><path id="WhatsApp_1_" class="st0" d="M136.2 66.3c0 36.6-29.9 66.4-66.8 66.4-11.7 0-22.7-3-32.3-8.3L0 136.2l12.1-35.6C6 90.6 2.5 78.9 2.5 66.4 2.5 29.7 32.4 0 69.4 0c36.9 0 66.8 29.7 66.8 66.3zM69.4 10.6c-31 0-56.2 25-56.2 55.8 0 12.2 4 23.5 10.7 32.7l-7 20.7 21.6-6.8c8.9 5.8 19.5 9.2 30.9 9.2 31 0 56.2-25 56.2-55.8 0-30.8-25.3-55.8-56.2-55.8zm33.7 71c-.4-.7-1.5-1.1-3.1-1.9-1.7-.8-9.7-4.7-11.3-5.2-1.5-.5-2.6-.8-3.6.8-1.1 1.6-4.2 5.3-5.2 6.4-1 1.1-2 1.2-3.6.4-1.6-.8-6.9-2.5-13.2-8.1-4.9-4.3-8.2-9.6-9.1-11.3-1-1.6-.1-2.5.7-3.3.8-.7 1.6-1.9 2.5-2.9.8-.9 1.1-1.6 1.7-2.7.5-1.1.3-2-.1-2.9-.4-.8-3.7-8.8-5.1-12.1-1.4-3.3-2.7-2.7-3.7-2.7s-2.1-.1-3.2-.1-2.9.4-4.4 2c-1.5 1.6-5.7 5.5-5.7 13.6 0 8 5.9 15.8 6.7 16.8.8 1.1 11.3 18 28 24.5s16.7 4.4 19.7 4.1c3-.3 9.7-3.9 11.1-7.7 1.3-3.8 1.3-7 .9-7.7z"/></svg>