<svg xmlns="http://www.w3.org/2000/svg" viewBox="0 0 141.06 134.77"><defs><style>.cls-1{fill:#fff;}</style></defs><title>Ativo 5</title><g id="Camada_2" data-name="Camada 2"><g id="Camada_1-2" data-name="Camada 1"><g id="Camada_2-2" data-name="Camada 2"><g id="Capa_1" data-name="Capa 1"><path id="LinkedIn" class="cls-1" d="M141.06,82.64v52.13H110.79V86.13c0-12.23-4.38-20.57-15.31-20.57-8.35,0-13.32,5.63-15.51,11.06A20.68,20.68,0,0,0,79,84v50.78H48.71s.41-82.41,0-91H79V56.71l-.2.29H79v-.29c4-6.17,11.19-15,27.26-15C126.14,41.7,141.06,54.69,141.06,82.64ZM17.11,0C6.77,0,0,6.79,0,15.71c0,8.7,6.57,15.72,16.71,15.72h.21c10.55,0,17.11-7,17.11-15.72C33.82,6.79,27.46,0,17.11,0ZM1.8,134.77H32.07V43.84H1.8Z"/></g></g></g></g></svg>