<?xml version="1.0" encoding="utf-8"?>
<!-- Generator: Adobe Illustrator 20.0.0, SVG Export Plug-In . SVG Version: 6.00 Build 0)  -->
<svg version="1.1" id="Camada_1" xmlns="http://www.w3.org/2000/svg" xmlns:xlink="http://www.w3.org/1999/xlink" x="0px" y="0px"
	 viewBox="0 0 136.7 144.7" style="enable-background:new 0 0 136.7 144.7;" xml:space="preserve">
<style type="text/css">
	.st0{fill:none;stroke:#FFFFFF;stroke-miterlimit:10;}
	.st1{fill:#FFFFFF;}
</style>
<rect id="Black_1_" x="6.6" y="10.6" class="st0" width="123.5" height="123.5"/>
<g id="RS_1_">
	<g id="S_1_">
		<path class="st1" d="M84.9,42.6c0,0-10.2-1.3-14.5-1.3c-7.2,0-11,2.6-11,8.3c0,6.6,3.5,7.7,12.4,9.7c10.1,2.3,14.6,4.8,14.6,13.7
			c0,11.3-6.2,15.7-16.3,15.7c-6,0-14.4,0-14.4,0v-5c0,0,8.9,0,14.1,0c7.2,0,10.9-3.2,10.9-10.2c0-5.7-3-7.4-11.3-9
			C59,62.3,53.7,59.8,53.7,50.1c0-9.9,6.5-13.7,16.4-13.7c6,0,15.4,1.5,15.4,1.5L84.9,42.6z"/>
	</g>
	<path id="R_1_" class="st1" d="M55.9,83.8v-3.6V69.8h-5.7v38.4h5.7V88.8h14.4l9.2,19.5h6.3l-9.8-20.7c0,0,0,0,0,0l-1.7-3.8h-5.2
		H55.9z"/>
</g>
</svg>
