<svg xmlns="http://www.w3.org/2000/svg" viewBox="0 0 209.91 136"><defs><style>.cls-1{fill:#fff;}</style></defs><title>Ativo 3</title><g id="Camada_2" data-name="Camada 2"><g id="Camada_1-2" data-name="Camada 1"><g id="Camada_2-2" data-name="Camada 2"><g id="Capa_1" data-name="Capa 1"><g id="behance"><path class="cls-1" d="M82.91,61.92s19.94-1.57,19.94-25S86.56,0,65.92,0H0V135.29H61.92s45.5-1,45.5-40.93C107.4,94.34,109.21,61.92,82.91,61.92Zm-17-34.87s8.48-.43,8.48,13.15S69.72,54.11,63.57,54.11H27.06V27.06Zm-1.74,81.17H27.06V74.41H65.89s13.75.24,13.75,18.35C79.67,107.85,69.89,108.23,64.18,108.23Z"/><path class="cls-1" d="M162.68,35.92c-50.2,0-50.16,50-50.16,50S109.06,136,162.68,136c0,0,44.67-.71,44.67-34.54H184.42s-.05,13.28-21.74,13.74c-7.48.16-20.61-1.48-20.61-20.51h67.65S215.56,35.92,162.68,35.92Zm20.4,38.5H140.19S143,55,163.21,55,183.08,74.41,183.08,74.41Z"/><rect class="cls-1" x="135.31" y="6.77" width="54.11" height="20.29"/></g></g></g></g></g></svg>