<svg xmlns="http://www.w3.org/2000/svg" viewBox="0 0 73.5 136"><defs><style>.cls-1{fill:#fff;}</style></defs><title>Ativo 1</title><g id="Camada_2" data-name="Camada 2"><g id="Camada_1-2" data-name="Camada 1"><g id="Camada_2-2" data-name="Camada 2"><g id="Capa_1" data-name="Capa 1"><path class="cls-1" d="M70.73,0H53.1C33.3,0,20.5,13.13,20.5,33.46V48.88H2.77A2.77,2.77,0,0,0,0,51.65H0V74a2.77,2.77,0,0,0,2.77,2.77H20.5v56.4A2.77,2.77,0,0,0,23.21,136H46.4a2.77,2.77,0,0,0,2.77-2.77h0V76.78H69.9A2.77,2.77,0,0,0,72.67,74h0V51.66a2.77,2.77,0,0,0-2.77-2.77H49.17V35.81c0-6.29,1.5-9.48,9.69-9.48H70.73a2.77,2.77,0,0,0,2.77-2.77V2.8A2.77,2.77,0,0,0,70.76,0Z"/></g></g></g></g></svg>