<?xml version="1.0" encoding="utf-8"?>
<!-- Generator: Adobe Illustrator 20.0.0, SVG Export Plug-In . SVG Version: 6.00 Build 0)  -->
<svg version="1.1" id="Capa_1" xmlns="http://www.w3.org/2000/svg" xmlns:xlink="http://www.w3.org/1999/xlink" x="0px" y="0px"
	 viewBox="0 0 136.2 133.3" style="enable-background:new 0 0 136.2 133.3;" xml:space="preserve">
<style type="text/css">
	.st0{fill:#FFFFFF;}
</style>
<g>
	<path id="WhatsApp_1_" class="st0" d="M136.2,66.3c0,36.6-29.9,66.4-66.8,66.4c-11.7,0-22.7-3-32.3-8.3L0,136.2l12.1-35.6
		C6,90.6,2.5,78.9,2.5,66.4C2.5,29.7,32.4,0,69.4,0C106.3,0,136.2,29.7,136.2,66.3z M69.4,10.6c-31,0-56.2,25-56.2,55.8
		c0,12.2,4,23.5,10.7,32.7l-7,20.7l21.6-6.8c8.9,5.8,19.5,9.2,30.9,9.2c31,0,56.2-25,56.2-55.8C125.6,35.6,100.3,10.6,69.4,10.6z
		 M103.1,81.6c-0.4-0.7-1.5-1.1-3.1-1.9c-1.7-0.8-9.7-4.7-11.3-5.2c-1.5-0.5-2.6-0.8-3.6,0.8c-1.1,1.6-4.2,5.3-5.2,6.4
		c-1,1.1-2,1.2-3.6,0.4c-1.6-0.8-6.9-2.5-13.2-8.1c-4.9-4.3-8.2-9.6-9.1-11.3c-1-1.6-0.1-2.5,0.7-3.3c0.8-0.7,1.6-1.9,2.5-2.9
		c0.8-0.9,1.1-1.6,1.7-2.7c0.5-1.1,0.3-2-0.1-2.9c-0.4-0.8-3.7-8.8-5.1-12.1c-1.4-3.3-2.7-2.7-3.7-2.7c-1,0-2.1-0.1-3.2-0.1
		c-1.1,0-2.9,0.4-4.4,2c-1.5,1.6-5.7,5.5-5.7,13.6c0,8,5.9,15.8,6.7,16.8c0.8,1.1,11.3,18,28,24.5c16.7,6.5,16.7,4.4,19.7,4.1
		c3-0.3,9.7-3.9,11.1-7.7C103.5,85.5,103.5,82.3,103.1,81.6z"/>
</g>
</svg>
